<svg width="20" height="20" viewBox="0 0 20 20" fill="none" xmlns="http://www.w3.org/2000/svg">
<path d="M0.548897 0.548897C0.900501 0.19773 1.37712 0.000482854 1.87405 0.000482854C2.37099 0.000482854 2.8476 0.19773 3.19921 0.548897L10 7.34719L16.8008 0.548897C16.9748 0.374875 17.1814 0.236833 17.4088 0.142654C17.6361 0.0484736 17.8798 4.8513e-09 18.1259 0C18.3721 -4.85129e-09 18.6157 0.0484736 18.8431 0.142654C19.0705 0.236833 19.2771 0.374875 19.4511 0.548897C19.6251 0.722919 19.7632 0.929512 19.8573 1.15688C19.9515 1.38425 20 1.62795 20 1.87405C20 2.12016 19.9515 2.36385 19.8573 2.59122C19.7632 2.81859 19.6251 3.02518 19.4511 3.19921L12.6528 10L19.4511 16.8008C19.8026 17.1522 20 17.6289 20 18.1259C20 18.623 19.8026 19.0996 19.4511 19.4511C19.0996 19.8026 18.623 20 18.1259 20C17.6289 20 17.1522 19.8026 16.8008 19.4511L10 12.6528L3.19921 19.4511C2.84775 19.8026 2.37108 20 1.87405 20C1.37702 20 0.90035 19.8026 0.548897 19.4511C0.197444 19.0996 0 18.623 0 18.1259C0 17.6289 0.197444 17.1522 0.548897 16.8008L7.34719 10L0.548897 3.19921C0.19773 2.8476 0.000482854 2.37099 0.000482854 1.87405C0.000482854 1.37712 0.19773 0.900501 0.548897 0.548897Z" fill="#1D2F48"/>
</svg>
