<svg width="392" height="76" viewBox="0 0 392 76" fill="none" xmlns="http://www.w3.org/2000/svg">
<g clip-path="url(#clip0_47_354)">
<path fill-rule="evenodd" clip-rule="evenodd" d="M173.142 31.7781C167.411 34.679 160.925 36.3142 154.056 36.3142C153.81 36.3142 153.566 36.3122 153.321 36.308C146.179 44.5381 135.622 49.7458 123.844 49.7458C121.176 49.7458 118.57 49.4785 116.053 48.9694C108.949 53.5522 100.48 56.213 91.3861 56.213C76.4168 56.213 63.138 49.0023 54.8587 37.8774C49.9236 40.0702 44.4566 41.2892 38.7039 41.2892C16.7787 41.2892 -0.995117 23.5828 -0.995117 1.74095C-0.995117 -20.1009 16.7787 -37.8073 38.7039 -37.8073C49.3903 -37.8073 59.0905 -33.6009 66.2272 -26.7595C73.4307 -31.5393 82.0818 -34.3251 91.3861 -34.3251C100.479 -34.3251 108.949 -31.6643 116.053 -27.0817C116.664 -27.2054 117.281 -27.3148 117.903 -27.4096C125.289 -39.6033 138.717 -47.7568 154.056 -47.7568C173.645 -47.7568 190.116 -34.4587 194.87 -16.4298C197.471 -17.0711 200.192 -17.4113 202.993 -17.4113C209.382 -17.4113 215.357 -15.6401 220.448 -12.5637C226.539 -25.146 239.465 -33.8277 254.427 -33.8277C268.567 -33.8277 280.889 -26.0729 287.341 -14.5996C290.707 -15.4609 294.235 -15.919 297.871 -15.919C304.359 -15.919 310.506 -14.46 315.998 -11.8534C322.138 -25.7872 336.111 -35.5188 352.365 -35.5188C374.291 -35.5188 392.064 -17.8125 392.064 4.02942C392.064 25.8713 374.291 43.5776 352.365 43.5776C347.094 43.5776 342.062 42.554 337.46 40.6954C331.51 56.725 316.03 68.1521 297.871 68.1521C279.858 68.1521 264.481 56.9076 258.427 41.0801C257.112 41.2182 255.778 41.289 254.427 41.289C245.906 41.289 238.045 38.4729 231.731 33.7239C225.801 43.336 215.148 49.746 202.993 49.746C190.034 49.746 178.783 42.4612 173.142 31.7781Z" fill="white"/>
<path fill-rule="evenodd" clip-rule="evenodd" d="M173.142 31.7781C167.411 34.679 160.925 36.3142 154.056 36.3142C153.81 36.3142 153.566 36.3122 153.321 36.308C146.179 44.5381 135.622 49.7458 123.844 49.7458C121.176 49.7458 118.57 49.4785 116.053 48.9694C108.949 53.5522 100.48 56.213 91.3861 56.213C76.4168 56.213 63.138 49.0023 54.8587 37.8774C49.9236 40.0702 44.4566 41.2892 38.7039 41.2892C16.7787 41.2892 -0.995117 23.5828 -0.995117 1.74095C-0.995117 -20.1009 16.7787 -37.8073 38.7039 -37.8073C49.3903 -37.8073 59.0905 -33.6009 66.2272 -26.7595C73.4307 -31.5393 82.0818 -34.3251 91.3861 -34.3251C100.479 -34.3251 108.949 -31.6643 116.053 -27.0817C116.664 -27.2054 117.281 -27.3148 117.903 -27.4096C125.289 -39.6033 138.717 -47.7568 154.056 -47.7568C173.645 -47.7568 190.116 -34.4587 194.87 -16.4298C197.471 -17.0711 200.192 -17.4113 202.993 -17.4113C209.382 -17.4113 215.357 -15.6401 220.448 -12.5637C226.539 -25.146 239.465 -33.8277 254.427 -33.8277C268.567 -33.8277 280.889 -26.0729 287.341 -14.5996C290.707 -15.4609 294.235 -15.919 297.871 -15.919C304.359 -15.919 310.506 -14.46 315.998 -11.8534C322.138 -25.7872 336.111 -35.5188 352.365 -35.5188C374.291 -35.5188 392.064 -17.8125 392.064 4.02942C392.064 25.8713 374.291 43.5776 352.365 43.5776C347.094 43.5776 342.062 42.554 337.46 40.6954C331.51 56.725 316.03 68.1521 297.871 68.1521C279.858 68.1521 264.481 56.9076 258.427 41.0801C257.112 41.2182 255.778 41.289 254.427 41.289C245.906 41.289 238.045 38.4729 231.731 33.7239C225.801 43.336 215.148 49.746 202.993 49.746C190.034 49.746 178.783 42.4612 173.142 31.7781Z" fill="url(#paint0_linear_47_354)"/>
</g>
<defs>
<linearGradient id="paint0_linear_47_354" x1="-17.5002" y1="-27.2224" x2="7.94666" y2="61.1067" gradientUnits="userSpaceOnUse">
<stop stop-color="#7BB1EE" stop-opacity="0.5"/>
<stop offset="1" stop-color="white"/>
</linearGradient>
<clipPath id="clip0_47_354">
<rect width="392" height="75.6142" fill="white"/>
</clipPath>
</defs>
</svg>
