<svg width="20" height="21" viewBox="0 0 20 21" fill="none" xmlns="http://www.w3.org/2000/svg">
<path d="M5.8 0.949951H14.2C17.4 0.949951 20 3.54995 20 6.74995V15.15C20 16.6882 19.3889 18.1635 18.3012 19.2512C17.2135 20.3389 15.7383 20.95 14.2 20.95H5.8C2.6 20.95 0 18.35 0 15.15V6.74995C0 5.2117 0.61107 3.73644 1.69878 2.64873C2.78649 1.56102 4.26174 0.949951 5.8 0.949951ZM5.6 2.94995C4.64522 2.94995 3.72955 3.32924 3.05442 4.00437C2.37928 4.6795 2 5.59517 2 6.54995V15.35C2 17.34 3.61 18.95 5.6 18.95H14.4C15.3548 18.95 16.2705 18.5707 16.9456 17.8955C17.6207 17.2204 18 16.3047 18 15.35V6.54995C18 4.55995 16.39 2.94995 14.4 2.94995H5.6ZM15.25 4.44995C15.5815 4.44995 15.8995 4.58165 16.1339 4.81607C16.3683 5.05049 16.5 5.36843 16.5 5.69995C16.5 6.03147 16.3683 6.34941 16.1339 6.58383C15.8995 6.81825 15.5815 6.94995 15.25 6.94995C14.9185 6.94995 14.6005 6.81825 14.3661 6.58383C14.1317 6.34941 14 6.03147 14 5.69995C14 5.36843 14.1317 5.05049 14.3661 4.81607C14.6005 4.58165 14.9185 4.44995 15.25 4.44995ZM10 5.94995C11.3261 5.94995 12.5979 6.47674 13.5355 7.41442C14.4732 8.3521 15 9.62387 15 10.95C15 12.276 14.4732 13.5478 13.5355 14.4855C12.5979 15.4232 11.3261 15.95 10 15.95C8.67392 15.95 7.40215 15.4232 6.46447 14.4855C5.52678 13.5478 5 12.276 5 10.95C5 9.62387 5.52678 8.3521 6.46447 7.41442C7.40215 6.47674 8.67392 5.94995 10 5.94995ZM10 7.94995C9.20435 7.94995 8.44129 8.26602 7.87868 8.82863C7.31607 9.39124 7 10.1543 7 10.95C7 11.7456 7.31607 12.5087 7.87868 13.0713C8.44129 13.6339 9.20435 13.95 10 13.95C10.7956 13.95 11.5587 13.6339 12.1213 13.0713C12.6839 12.5087 13 11.7456 13 10.95C13 10.1543 12.6839 9.39124 12.1213 8.82863C11.5587 8.26602 10.7956 7.94995 10 7.94995Z" fill="#1D2F48"/>
</svg>
