<svg width="18" height="19" viewBox="0 0 18 19" fill="none" xmlns="http://www.w3.org/2000/svg">
<path d="M16 0.949951C16.5304 0.949951 17.0391 1.16066 17.4142 1.53574C17.7893 1.91081 18 2.41952 18 2.94995V16.95C18 17.4804 17.7893 17.9891 17.4142 18.3642C17.0391 18.7392 16.5304 18.95 16 18.95H2C1.46957 18.95 0.960859 18.7392 0.585786 18.3642C0.210714 17.9891 0 17.4804 0 16.95V2.94995C0 2.41952 0.210714 1.91081 0.585786 1.53574C0.960859 1.16066 1.46957 0.949951 2 0.949951H16ZM15.5 16.45V11.15C15.5 10.2853 15.1565 9.45615 14.5452 8.84478C13.9338 8.23341 13.1046 7.88995 12.24 7.88995C11.39 7.88995 10.4 8.40995 9.92 9.18995V8.07995H7.13V16.45H9.92V11.52C9.92 10.75 10.54 10.12 11.31 10.12C11.6813 10.12 12.0374 10.2675 12.2999 10.53C12.5625 10.7926 12.71 11.1486 12.71 11.52V16.45H15.5ZM3.88 6.50995C4.32556 6.50995 4.75288 6.33295 5.06794 6.01789C5.383 5.70283 5.56 5.27552 5.56 4.82995C5.56 3.89995 4.81 3.13995 3.88 3.13995C3.43178 3.13995 3.00193 3.318 2.68499 3.63494C2.36805 3.95188 2.19 4.38174 2.19 4.82995C2.19 5.75995 2.95 6.50995 3.88 6.50995ZM5.27 16.45V8.07995H2.5V16.45H5.27Z" fill="#1D2F48"/>
</svg>
