<svg width="24" height="20" viewBox="0 0 24 20" fill="none" xmlns="http://www.w3.org/2000/svg">
<path d="M2.0417 8.33325H22.7765C23.4522 8.33325 24 9.04213 24 9.91658V10.0832C24 10.9577 23.4522 11.6666 22.7765 11.6666H2.0417C1.36599 11.6666 0.818214 10.9577 0.818214 10.0832V9.91658C0.818214 9.04213 1.36599 8.33325 2.0417 8.33325Z" fill="#1D2F48"/>
<path d="M2.0417 16.6667H22.7765C23.4522 16.6667 24 17.3756 24 18.2501V18.4167C24 19.2912 23.4522 20.0001 22.7765 20.0001H2.0417C1.36599 20.0001 0.818214 19.2912 0.818214 18.4167V18.2501C0.818214 17.3756 1.36599 16.6667 2.0417 16.6667Z" fill="#1D2F48"/>
<path d="M2.0417 0H22.7765C23.4522 0 24 0.708881 24 1.58333V1.75C24 2.62445 23.4522 3.33333 22.7765 3.33333H2.0417C1.36599 3.33333 0.818214 2.62445 0.818214 1.75V1.58333C0.818214 0.708881 1.36599 0 2.0417 0Z" fill="#1D2F48"/>
</svg>
