<svg width="20" height="15" viewBox="0 0 20 15" fill="none" xmlns="http://www.w3.org/2000/svg">
<path d="M8 10.95L13.19 7.94995L8 4.94995V10.95ZM19.56 3.11995C19.69 3.58995 19.78 4.21995 19.84 5.01995C19.91 5.81995 19.94 6.50995 19.94 7.10995L20 7.94995C20 10.14 19.84 11.75 19.56 12.78C19.31 13.68 18.73 14.26 17.83 14.51C17.36 14.64 16.5 14.73 15.18 14.79C13.88 14.86 12.69 14.89 11.59 14.89L10 14.95C5.81 14.95 3.2 14.79 2.17 14.51C1.27 14.26 0.69 13.68 0.44 12.78C0.31 12.31 0.22 11.68 0.16 10.88C0.0900001 10.08 0.0599999 9.38995 0.0599999 8.78995L0 7.94995C0 5.75995 0.16 4.14995 0.44 3.11995C0.69 2.21995 1.27 1.63995 2.17 1.38995C2.64 1.25995 3.5 1.16995 4.82 1.10995C6.12 1.03995 7.31 1.00995 8.41 1.00995L10 0.949951C14.19 0.949951 16.8 1.10995 17.83 1.38995C18.73 1.63995 19.31 2.21995 19.56 3.11995Z" fill="#1D2F48"/>
</svg>
